<?xml version="1.0" encoding="UTF-8"?><svg id="Layer_1" xmlns="http://www.w3.org/2000/svg" viewBox="0 0 360 360"><defs><style>.cls-1{fill:blue;}</style></defs><path class="cls-1" d="m76.76,187.97c14.13,0,25.7-11.56,25.7-25.7s-11.56-25.7-25.7-25.7-25.7,11.56-25.7,25.7,11.56,25.7,25.7,25.7m14.52,14.13c-4.75-.77-9.51-1.28-14.52-1.28-12.72,0-24.8,2.7-35.72,7.45-9.51,4.11-15.68,13.36-15.68,23.77v20.17h57.82v-20.69c0-10.67,2.96-20.69,8.1-29.43Zm191.07-14.13c14.13,0,25.7-11.56,25.7-25.7s-11.56-25.7-25.7-25.7-25.7,11.56-25.7,25.7,11.56,25.7,25.7,25.7Zm51.4,44.07c0-10.41-6.17-19.66-15.68-23.77-10.92-4.75-23-7.45-35.72-7.45-5.01,0-9.77.51-14.52,1.28,5.14,8.74,8.1,18.76,8.1,29.43v20.69h57.82v-20.17Zm-99.71-35.72c-15.03-6.68-33.54-11.56-54.48-11.56s-39.45,5.01-54.48,11.56c-13.88,6.17-22.62,20.05-22.62,35.21v20.69h154.19v-20.69c0-15.16-8.74-29.04-22.62-35.21Zm-104.98,30.2c1.16-2.96,1.67-5.01,11.69-8.87,12.46-4.88,25.57-7.2,38.81-7.2s26.34,2.31,38.81,7.2c9.89,3.85,10.41,5.91,11.69,8.87h-101Zm50.5-102.8c7.07,0,12.85,5.78,12.85,12.85s-5.78,12.85-12.85,12.85-12.85-5.78-12.85-12.85,5.78-12.85,12.85-12.85m0-25.7c-21.33,0-38.55,17.22-38.55,38.55s17.22,38.55,38.55,38.55,38.55-17.22,38.55-38.55-17.22-38.55-38.55-38.55Z"/></svg>